<svg xmlns="http://www.w3.org/2000/svg" viewBox="0 0 500 500">
  <g id="freepik--background-simple--inject-274" transform="rotate(40, 250, 250)">
    <path d="M325.08,56.51S251.53,30.36,179.33,72,70.7,196.29,39.42,262.5,26.14,396.05,81.26,426.76,173.85,412.2,251.16,410s98.11,8.85,162.27-34.83S489.18,228.34,438.57,152,325.08,56.51,325.08,56.51Z" style="fill:#092635;opacity:0.3"></path>
    <path d="M325.08,56.51S251.53,30.36,179.33,72,70.7,196.29,39.42,262.5,26.14,396.05,81.26,426.76,173.85,412.2,251.16,410s98.11,8.85,162.27-34.83S489.18,228.34,438.57,152,325.08,56.51,325.08,56.51Z" style="fill:#fff;opacity:0.21"></path>
  </g>
</svg>
