<?xml version="1.0" encoding="utf-8"?>
<svg viewBox="0 0 1500 1500" xmlns="http://www.w3.org/2000/svg">
  <g transform="matrix(1.2283680438995361, 0, 0, 1.2283680438995361, -323.73724847640415, 175.10924028022964)" style="">
    <svg viewBox="0 0 396 247" data-background-color="#ffffff" preserveAspectRatio="xMidYMid meet" height="935" width="1500" xmlns="http://www.w3.org/2000/svg">
      <g id="tight-bounds" transform="matrix(1,0,0,1,0.2400000000000091,-0.09999999999999432)">
        <svg viewBox="0 0 395.52 247.2" height="247.2" width="395.52">
          <g>
            <svg/>
          </g>
          <g>
            <svg viewBox="0 0 395.52 247.2" height="247.2" width="395.52">
              <g transform="matrix(1,0,0,1,75.54432,59.43226815905744)">
                <svg viewBox="0 0 244.43135999999998 128.3354636818851" height="128.3354636818851" width="244.43135999999998">
                  <g>
                    <svg viewBox="0 0 244.43135999999998 128.3354636818851" height="128.3354636818851" width="244.43135999999998">
                      <g>
                        <svg viewBox="0 0 244.43135999999998 128.3354636818851" height="128.3354636818851" width="244.43135999999998">
                          <g>
                            <svg viewBox="0 0 244.43135999999998 128.3354636818851" height="128.3354636818851" width="244.43135999999998">
                              <g id="textblocktransform">
                                <svg viewBox="0 0 244.43135999999998 128.3354636818851" height="128.3354636818851" width="244.43135999999998" id="textblock">
                                  <g>
                                    <svg viewBox="0 0 244.43135999999998 128.3354636818851" height="128.3354636818851" width="244.43135999999998">
                                      <g transform="matrix(1,0,0,1,0,0)">
                                        <svg width="244.43135999999998" viewBox="4.45 -35.1 67.89999999999999 35.65" height="128.3354636818851" data-palette-color="#001f3f">
                                          <path d="M37.75-5.7Q37.75-2.1 38.35-0.35L38.35-0.35Q37.3 0.55 36 0.55L36 0.55Q35.05 0.55 34.45-0.05 33.85-0.65 33.85-1.65L33.85-1.65 33.75-29.8 22.8-5.45Q21.6-5 20.6-5L20.6-5Q19.7-5 19-5.35L19-5.35Q13.35-16.05 7.2-29.65L7.2-29.65 7.25-5.7Q7.25-1.95 7.9-0.05L7.9-0.05Q7.2 0.55 6.25 0.55L6.25 0.55Q4.8 0.55 4.8-1.3L4.8-1.3 4.75-28.95Q4.75-32.5 4.45-34.5L4.45-34.5Q5.05-35.1 7.1-35.1L7.1-35.1Q8.45-35.1 9.2-34.3L9.2-34.3 13.35-25.55 21.4-8.85Q22.4-11.05 28.35-24.6L28.35-24.6Q29.85-28.15 30.95-30.65 32.05-33.15 32.75-34.7L32.75-34.7Q33.8-35.1 35.2-35.1L35.2-35.1Q36.15-35.1 36.88-34.75 37.6-34.4 37.65-33.9L37.65-33.9 37.75-5.7ZM71.7-5.7Q71.7-2.05 72.35-0.35L72.35-0.35Q71.3 0.55 70 0.55L70 0.55Q69 0.55 68.35-0.05 67.7-0.65 67.7-1.65L67.7-1.65 67.65-17.1 51.35-17.1 51.35-5.7Q51.35-2.05 52-0.35L52-0.35Q50.95 0.55 49.65 0.55L49.65 0.55Q48.65 0.55 48-0.05 47.35-0.65 47.35-1.65L47.35-1.65 47.3-28.85Q47.3-32.3 46.65-34.2L46.65-34.2Q47.7-35.1 49-35.1L49-35.1Q50.05-35.1 50.7-34.52 51.35-33.95 51.35-32.9L51.35-32.9 51.35-19.5 67.65-19.5 67.65-28.85Q67.65-32.3 67-34.2L67-34.2Q68.05-35.1 69.35-35.1L69.35-35.1Q70.4-35.1 71.05-34.52 71.7-33.95 71.7-32.9L71.7-32.9 71.7-5.7Z" opacity="1" transform="matrix(1,0,0,1,0,0)" fill="#fff" class="wordmark-text-0" data-fill-palette-color="primary" id="text-0"/>
                                        </svg>
                                      </g>
                                    </svg>
                                  </g>
                                </svg>
                              </g>
                            </svg>
                          </g>
                        </svg>
                      </g>
                    </svg>
                  </g>
                </svg>
              </g>
              <path d="M151.154 53.432L151.154 7.035 384.285 7.035 384.285 240.165 151.154 240.165 151.154 193.768 162.728 193.768 162.728 228.592 372.711 228.592 372.711 18.608 162.728 18.608 162.728 53.432Z" fill="#fff" stroke="transparent" data-fill-palette-color="tertiary"/>
            </svg>
          </g>
        </svg>
        <rect width="395.52" height="247.2" fill="none" stroke="none" visibility="hidden"/>
      </g>
    </svg>
  </g>
</svg>